# xmcd
#
# Track frame offsets:
#	150
#	19138
#	31911
#	50685
#	73116
#	86589
#	109215
#	132272
#	157250
#	183030
#	199421
#	224211
#	245177
#	265077
#	282462
#
# Disc length: 3971
#
# Revision: 2
# Processed by: cddbd v1.5.1PL0 Copyright (c) Steve Scherf et al.
# Submitted via: Grip 3.2.0
# Normalized: r1:DSETVAR1
#
DISCID=f00f810f
DTITLE=Various Artist - Fall Sounds - Studio Distribution Fall 2004 Sampler
DYEAR=1900
DGENRE=Blues
TTITLE0=GB featuring Spacek - Simply So (Sa Ra Remix)
TTITLE1=Plant Life - Luv 4 The World
TTITLE2=Ming and FS - Fish Eyes
TTITLE3=Mark Rae - Without You Now
TTITLE4=Greenskeepers - Filipino Phil
TTITLE5=Jody Watley - The Essence
TTITLE6=Mutiny - Dem Girls
TTITLE7=Unkie - Reign
TTITLE8=Way Out West - Anything But You
TTITLE9=David Morales - How Would U Feel
TTITLE10=Fred Everything - Light Of Day
TTITLE11=Trafik - Into The Wind
TTITLE12=Masta Ace - Beautiful
TTITLE13=Seven Star - An Error's End
TTITLE14=DJ Cam - Espionage Feet
EXTD=
EXTT0=
EXTT1=
EXTT2=
EXTT3=
EXTT4=
EXTT5=
EXTT6=
EXTT7=
EXTT8=
EXTT9=
EXTT10=
EXTT11=
EXTT12=
EXTT13=
EXTT14=
PLAYORDER=
